<?xml version="1.0" encoding="UTF-8" standalone="no"?>
<!-- Generator: Adobe Illustrator 19.0.0, SVG Export Plug-In . SVG Version: 6.00 Build 0)  -->

<svg
   xmlns:dc="http://purl.org/dc/elements/1.1/"
   xmlns:cc="http://creativecommons.org/ns#"
   xmlns:rdf="http://www.w3.org/1999/02/22-rdf-syntax-ns#"
   xmlns:svg="http://www.w3.org/2000/svg"
   xmlns="http://www.w3.org/2000/svg"
   xmlns:sodipodi="http://sodipodi.sourceforge.net/DTD/sodipodi-0.dtd"
   xmlns:inkscape="http://www.inkscape.org/namespaces/inkscape"
   version="1.1"
   id="Capa_1"
   x="0px"
   y="0px"
   viewBox="0 0 464.87 464.87"
   style="enable-background:new 0 0 464.87 464.87;"
   xml:space="preserve"
   sodipodi:docname="favicon.svg"
   inkscape:version="0.92.3 (2405546, 2018-03-11)"><metadata
   id="metadata103"><rdf:RDF><cc:Work
       rdf:about=""><dc:format>image/svg+xml</dc:format><dc:type
         rdf:resource="http://purl.org/dc/dcmitype/StillImage" /></cc:Work></rdf:RDF></metadata><defs
   id="defs101">
	

		
	</defs><sodipodi:namedview
   pagecolor="#ffffff"
   bordercolor="#666666"
   borderopacity="1"
   objecttolerance="10"
   gridtolerance="10"
   guidetolerance="10"
   inkscape:pageopacity="0"
   inkscape:pageshadow="2"
   inkscape:window-width="1920"
   inkscape:window-height="1151"
   id="namedview99"
   showgrid="false"
   inkscape:zoom="1.4359042"
   inkscape:cx="191.8423"
   inkscape:cy="290.59417"
   inkscape:window-x="0"
   inkscape:window-y="25"
   inkscape:window-maximized="1"
   inkscape:current-layer="Capa_1" />
<path
   d="M 311.11655,332.13816 C 375.38284,306.03724 417.03477,243.16005 416.00212,173.80392 416.00212,78.47997 333.64678,0.929904 232.4191,0.929904 131.19141,0.929904 48.836077,78.47997 48.836077,173.80392 47.80342,243.16005 89.4538,306.03724 153.72164,332.13816 l 1.42276,0.77105 9.71918,15.94724 c -17.35165,10.04352 -23.27525,32.25095 -13.23326,49.60107 1.32026,2.28103 2.8853,4.41212 4.6676,6.35504 -13.60657,14.91612 -12.54637,38.03688 2.36822,51.64495 6.77574,6.18064 15.6275,9.58917 24.79747,9.54939 h 97.91096 c 20.18954,0.0888 36.62788,-16.20732 36.7166,-36.39686 0.0398,-9.1715 -3.36874,-18.02327 -9.54938,-24.79748 13.55302,-14.77384 12.56168,-37.73702 -2.21216,-51.28851 -1.94292,-1.78229 -4.07249,-3.34734 -6.35504,-4.6676 l 9.71919,-15.94724 z m -29.74352,109.391 h -97.91095 c -6.75892,0 -12.23886,-5.47995 -12.23886,-12.23887 0,-6.75892 5.47994,-12.23886 12.23886,-12.23886 h 97.91095 c 6.75892,0 12.23888,5.47994 12.23888,12.23886 0,6.75892 -5.47996,12.23887 -12.23888,12.23887 z m 0,-48.95548 h -97.91095 c -6.75892,0 -12.23886,-5.47994 -12.23886,-12.23886 0,-6.75891 5.47994,-12.23887 12.23886,-12.23887 h 97.91095 c 6.75892,0 12.23888,5.47996 12.23888,12.23887 0,6.75892 -5.47996,12.23886 -12.23888,12.23886 z"
   id="path2-3"
   inkscape:connector-curvature="0"
   style="fill:#ffe600;fill-opacity:1;stroke:none;stroke-width:1.52985859;stroke-opacity:1"
   sodipodi:nodetypes="ccscccccccccccccccssssssssssssss" /><path
   d="M 311.11655,332.13816 C 375.38284,306.03724 417.03477,243.16005 416.00212,173.80392 416.00212,78.47997 333.64678,0.929904 232.4191,0.929904 131.19142,0.929904 48.836074,78.47997 48.836074,173.80392 47.80342,243.16005 89.453814,306.03724 153.72165,332.13816 l 1.42276,0.77105 9.71919,15.94724 c -17.35165,10.04352 -23.27526,32.25095 -13.23327,49.60107 1.32026,2.28103 2.88531,4.41212 4.6676,6.35504 -13.60656,14.91612 -12.54637,38.03688 2.36822,51.64495 6.77575,6.18064 15.6275,9.58917 24.79747,9.54939 h 97.91095 c 20.18954,0.0888 36.62788,-16.20732 36.7166,-36.39686 0.0398,-9.1715 -3.36874,-18.02327 -9.54938,-24.79748 13.55302,-14.77384 12.56168,-37.73702 -2.21216,-51.28851 -1.94292,-1.78229 -4.07249,-3.34734 -6.35504,-4.6676 l 9.71919,-15.94724 z m -29.74352,109.391 h -97.91094 c -6.75892,0 -12.23886,-5.47995 -12.23886,-12.23887 0,-6.75892 5.47994,-12.23886 12.23886,-12.23886 h 97.91094 c 6.75892,0 12.23888,5.47994 12.23888,12.23886 0,6.75892 -5.47996,12.23887 -12.23888,12.23887 z m 0,-48.95548 h -97.91094 c -6.75892,0 -12.23886,-5.47994 -12.23886,-12.23886 0,-6.75891 5.47994,-12.23887 12.23886,-12.23887 h 97.91094 c 6.75892,0 12.23888,5.47996 12.23888,12.23887 0,6.75892 -5.47996,12.23886 -12.23888,12.23886 z m 18.63369,-82.25896 -4.89402,2.65889 c -1.89396,1.03266 -3.48349,2.5457 -4.60793,4.38611 l -16.00385,26.2585 h -5.36674 v -92.84406 l 57.60835,-57.60835 -17.30577,-17.30728 -61.19434,61.19433 c -2.29479,2.29479 -3.58446,5.40653 -3.58598,8.65288 v 97.91095 H 220.1787 v -97.91095 c -0.001,-3.24635 -1.29119,-6.35809 -3.58599,-8.65288 l -61.19433,-61.19433 -17.30577,17.30575 57.60835,57.60836 v 92.84405 h -5.36674 l -16.00385,-26.2585 c -1.12445,-1.84042 -2.71397,-3.35345 -4.60793,-4.38609 l -4.89403,-2.65891 c -0.39317,-0.20959 -0.79551,-0.39928 -1.20706,-0.56757 -55.33344,-22.26097 -91.236167,-76.30629 -90.309063,-135.9417 0,-81.82296 71.370953,-148.396282 159.105283,-148.396282 87.73432,0 159.10528,66.573322 159.10528,148.396282 0.92711,59.63541 -34.97716,113.68073 -90.30908,135.9417 -0.41153,0.16982 -0.81541,0.35952 -1.20705,0.5691 z"
   id="path2"
   inkscape:connector-curvature="0"
   style="fill:#000000;fill-opacity:1;stroke:none;stroke-width:1.52985859;stroke-opacity:1" />


<g
   id="g24"
   transform="matrix(1.1083383,0,0,1.1083383,-25.179782,17.585251)">
	
</g>







<g
   id="g68">
</g>
<g
   id="g70">
</g>
<g
   id="g72">
</g>
<g
   id="g74">
</g>
<g
   id="g76">
</g>
<g
   id="g78">
</g>
<g
   id="g80">
</g>
<g
   id="g82">
</g>
<g
   id="g84">
</g>
<g
   id="g86">
</g>
<g
   id="g88">
</g>
<g
   id="g90">
</g>
<g
   id="g92">
</g>
<g
   id="g94">
</g>
<g
   id="g96">
</g>
</svg>